<svg width="128" height="128" viewBox="0 0 128 128" fill="none" xmlns="http://www.w3.org/2000/svg">
<rect width="128" height="128" rx="22" fill="url(#paint0_linear_0_1)"/>
<g filter="url(#filter0_dd_0_1)">
<path d="M39 41.855L119.27 41.855V70.03C119.27 85.67 110.99 94.41 97.88 94.41C88.795 94.41 83.39 89.695 80.975 81.3H80.285C77.87 91.19 71.89 96.94 61.08 96.94C47.625 96.94 39 87.855 39 72.675V41.855ZM51.075 58.645V67.385C51.075 75.55 53.375 79.345 60.735 79.345H64.07C71.315 79.345 73.73 75.55 73.73 67.385V58.645L51.075 58.645ZM85.23 58.645V65.2C85.23 73.25 87.53 76.815 94.545 76.815H97.995C105.01 76.815 107.195 73.25 107.195 65.2V58.645H85.23Z" fill="white"/>
<path d="M21.75 33V102H10.25V33H21.75Z" fill="white"/>
</g>
<defs>
<filter id="filter0_dd_0_1" x="6.25" y="30" width="117.02" height="77" filterUnits="userSpaceOnUse" color-interpolation-filters="sRGB">
<feFlood flood-opacity="0" result="BackgroundImageFix"/>
<feColorMatrix in="SourceAlpha" type="matrix" values="0 0 0 0 0 0 0 0 0 0 0 0 0 0 0 0 0 0 127 0" result="hardAlpha"/>
<feMorphology radius="1" operator="dilate" in="SourceAlpha" result="effect1_dropShadow_0_1"/>
<feOffset dy="1"/>
<feGaussianBlur stdDeviation="1.5"/>
<feColorMatrix type="matrix" values="0 0 0 0 0 0 0 0 0 0 0 0 0 0 0 0 0 0 0.15 0"/>
<feBlend mode="normal" in2="BackgroundImageFix" result="effect1_dropShadow_0_1"/>
<feColorMatrix in="SourceAlpha" type="matrix" values="0 0 0 0 0 0 0 0 0 0 0 0 0 0 0 0 0 0 127 0" result="hardAlpha"/>
<feOffset dy="1"/>
<feGaussianBlur stdDeviation="1"/>
<feColorMatrix type="matrix" values="0 0 0 0 0 0 0 0 0 0 0 0 0 0 0 0 0 0 0.3 0"/>
<feBlend mode="normal" in2="effect1_dropShadow_0_1" result="effect2_dropShadow_0_1"/>
<feBlend mode="normal" in="SourceGraphic" in2="effect2_dropShadow_0_1" result="shape"/>
</filter>
<linearGradient id="paint0_linear_0_1" x1="64" y1="0" x2="64" y2="128" gradientUnits="userSpaceOnUse">
<stop/>
<stop offset="1" stop-color="#323131"/>
</linearGradient>
</defs>
</svg>
